<?xml version="1.0" encoding="UTF-8"?>
<svg xmlns="http://www.w3.org/2000/svg" xmlns:xlink="http://www.w3.org/1999/xlink" width="400pt" height="400pt" viewBox="0 0 400 400" version="1.1">
<g id="surface1">
<path style=" stroke:none;fill-rule:nonzero;fill:rgb(100%,0%,0%);fill-opacity:1;" d="M 183.589844 6.789063 C 217.410156 3.789063 251.988281 9.871094 282.769531 24.199219 C 312.609375 37.890625 338.769531 59.390625 358.171875 85.859375 C 376.558594 110.820313 388.839844 140.261719 393.640625 170.898438 C 400.238281 211.96875 393.300781 255.109375 373.96875 291.96875 C 352.269531 334.050781 314.601563 367.582031 270.308594 384.300781 C 236.96875 397.148438 200.058594 400.429688 164.949219 393.910156 C 135.859375 388.488281 107.980469 376.460938 84.261719 358.738281 C 60.648438 341.332031 41.03125 318.488281 27.5 292.449219 C 7.800781 255.28125 0.851563 211.601563 7.679688 170.109375 C 13.789063 131.839844 31.738281 95.570313 58.390625 67.449219 C 90.78125 32.738281 136.320313 10.839844 183.589844 6.789063 M 184.570313 28.78125 C 176.261719 29.550781 168.011719 30.910156 159.910156 32.890625 C 112.46875 44.078125 70.539063 76.421875 47.738281 119.519531 C 31.679688 149.160156 24.769531 183.589844 27.808594 217.140625 C 29.808594 240 36.429688 262.449219 47.210938 282.710938 C 66.800781 320.289063 100.828125 349.980469 140.628906 364.5 C 189.691406 382.898438 247.03125 377.261719 291.480469 349.46875 C 333.128906 324.210938 362.960938 280.449219 371.328125 232.46875 C 376.671875 202.679688 374.191406 171.480469 363.929688 142.988281 C 353.359375 113.339844 334.449219 86.738281 310.03125 66.898438 C 275.300781 38.480469 229.25 24.429688 184.570313 28.78125 M 197.949219 44.691406 C 198.480469 44.78125 199.53125 44.96875 200.058594 45.058594 C 201.191406 49.410156 201.511719 53.949219 202.78125 58.28125 C 207.398438 76.96875 217.339844 93.648438 226.488281 110.390625 C 234.96875 125.550781 243.160156 141 248.628906 157.550781 C 255.441406 176.929688 257.828125 197.578125 257.648438 218.050781 C 247.21875 215.601563 235.738281 213.839844 225.628906 218.429688 C 215.890625 222.75 210.019531 232.769531 208.011719 242.898438 C 206.269531 249.371094 207.78125 256.121094 209.808594 262.339844 C 212.871094 271.390625 220.121094 279.011719 229.289063 281.910156 C 237.921875 285.121094 247.390625 283.519531 256.019531 281.160156 C 269.699219 277.101563 280.761719 266.140625 285.648438 252.820313 C 289.03125 243.96875 290.578125 234.359375 289.808594 224.910156 C 288.328125 213.171875 283.949219 202.070313 280.441406 190.839844 C 274.761719 173.421875 269.730469 155.519531 269.140625 137.089844 C 268.628906 121.710938 271.660156 106.21875 277.96875 92.179688 C 279.898438 102.859375 282.378906 113.488281 286.488281 123.558594 C 298.300781 154.378906 320.949219 180.019531 330.128906 211.980469 C 334.769531 226.839844 335.011719 242.589844 334.25 258 C 331.820313 283.949219 320.488281 309.441406 301.050781 327.089844 C 280.601563 346.148438 253.261719 355.917969 226 360.011719 C 212.921875 361.730469 199.640625 363.300781 186.449219 361.839844 C 165.378906 359.878906 144.390625 354.941406 125.238281 345.789063 C 107.589844 337.769531 91.800781 325.167969 81.011719 308.96875 C 69.628906 291.980469 64.699219 271.359375 64.429688 251.089844 C 64.839844 236.179688 67.21875 221.25 72.261719 207.171875 C 79.890625 185.371094 94.929688 167.480469 107.308594 148.328125 C 118.140625 132.070313 126.679688 114.320313 132.71875 95.75 C 137.878906 108.820313 139.421875 123.550781 135.398438 137.140625 C 129.570313 157.898438 114.78125 174.878906 109.519531 195.859375 C 105.449219 211.128906 108.148438 227.269531 113.101563 241.988281 C 117.5 255.039063 125.609375 267.160156 137.371094 274.628906 C 149.371094 282.511719 164.300781 284.960938 178.421875 283.488281 C 159.769531 265.46875 146.871094 241.460938 142.601563 215.851563 C 139.699219 200.339844 142.550781 184.449219 146.609375 169.421875 C 153.921875 142.960938 169.320313 119.941406 181.960938 95.878906 C 190.429688 80.03125 196.960938 62.800781 197.949219 44.691406 "/>
</g>
</svg>
